<?xml version="1.0" encoding="UTF-8" standalone="no"?>
<!DOCTYPE svg PUBLIC "-//W3C//DTD SVG 1.1//EN" "http://www.w3.org/Graphics/SVG/1.1/DTD/svg11.dtd">
<svg width="100%" height="100%" viewBox="0 0 284 163" version="1.1" xmlns="http://www.w3.org/2000/svg" xmlns:xlink="http://www.w3.org/1999/xlink" xml:space="preserve" xmlns:serif="http://www.serif.com/" style="fill-rule:evenodd;clip-rule:evenodd;stroke-linejoin:round;stroke-miterlimit:2;">
    <g transform="matrix(1,0,0,1,0,-0.873001)">
        <g>
            <path d="M27.353,65.786L27.353,112.22L35.305,112.22L35.305,101.783L39.92,96.813L49.363,112.22L58.309,112.22L45.174,91.772L57.173,76.152L48.582,76.152L35.305,93.76L35.305,65.786L27.353,65.786Z" style="fill:rgb(35,31,32);fill-rule:nonzero;"/>
            <path d="M80.673,77.573L72.508,77.573L72.508,69.337L66.97,69.337L64.911,77.36L60.154,77.715L60.154,82.756L64.485,83.892L64.485,101.571C64.485,108.813 67.254,112.789 74.07,112.789C76.697,112.789 78.827,112.15 80.673,111.156L79.963,106.257C78.969,106.612 77.975,106.825 76.91,106.825C74.212,106.825 72.508,105.334 72.508,101.926L72.508,83.537L80.673,83.537L80.673,77.573Z" style="fill:rgb(35,31,32);fill-rule:nonzero;"/>
            <path d="M107.014,103.133C105.665,104.979 103.251,106.541 100.127,106.541C96.08,106.541 94.092,104.056 94.092,99.299L94.092,76.153L86.14,76.153L86.14,99.228C86.14,107.606 90.258,112.86 97.571,112.86C101.618,112.86 104.955,111.511 107.511,108.813L107.866,112.221L114.895,112.221L114.895,76.153L107.014,76.153L107.014,103.133Z" style="fill:rgb(35,31,32);fill-rule:nonzero;"/>
            <path d="M162.175,52.89L162.175,65.578L165.087,65.578L165.087,52.89L162.175,52.89ZM162.357,48.574L162.357,51.122L164.905,51.122L164.905,48.574L162.357,48.574Z" style="fill:rgb(35,31,32);fill-rule:nonzero;"/>
            <path d="M171.249,55.802C171.743,55.074 172.627,54.528 173.771,54.528C175.227,54.528 175.981,55.412 175.981,57.206L175.981,65.578L178.867,65.578L178.867,57.128C178.867,54.034 177.385,52.136 174.655,52.136C173.173,52.136 171.951,52.63 171.041,53.644L170.937,52.37L168.337,52.37L168.337,65.578L171.249,65.578L171.249,55.802Z" style="fill:rgb(35,31,32);fill-rule:nonzero;"/>
            <path d="M190.124,54.996C189.292,53.098 187.836,52.136 185.73,52.136C182.792,52.136 181.206,53.826 181.206,55.932C181.206,60.326 187.472,59.442 187.472,62.068C187.472,63.16 186.874,63.758 185.626,63.758C184.586,63.758 183.442,63.238 182.818,61.912L181.024,62.9C181.934,64.928 183.52,65.812 185.704,65.812C188.356,65.812 190.228,64.122 190.228,61.808C190.228,57.362 183.962,58.168 183.962,55.698C183.962,54.814 184.56,54.216 185.834,54.216C186.9,54.216 187.836,54.606 188.356,55.828L190.124,54.996Z" style="fill:rgb(35,31,32);fill-rule:nonzero;"/>
            <path d="M198.886,52.89L195.896,52.89L195.896,49.874L193.868,49.874L193.114,52.812L191.372,52.942L191.372,54.788L192.958,55.204L192.958,61.678C192.958,64.33 193.972,65.786 196.468,65.786C197.43,65.786 198.21,65.552 198.886,65.188L198.626,63.394C198.262,63.524 197.898,63.602 197.508,63.602C196.52,63.602 195.896,63.056 195.896,61.808L195.896,55.074L198.886,55.074L198.886,52.89Z" style="fill:rgb(35,31,32);fill-rule:nonzero;"/>
            <path d="M201.355,52.89L201.355,65.578L204.267,65.578L204.267,52.89L201.355,52.89ZM201.537,48.574L201.537,51.122L204.085,51.122L204.085,48.574L201.537,48.574Z" style="fill:rgb(35,31,32);fill-rule:nonzero;"/>
            <path d="M213.939,52.89L210.949,52.89L210.949,49.874L208.921,49.874L208.167,52.812L206.425,52.942L206.425,54.788L208.011,55.204L208.011,61.678C208.011,64.33 209.025,65.786 211.521,65.786C212.483,65.786 213.263,65.552 213.939,65.188L213.679,63.394C213.315,63.524 212.951,63.602 212.561,63.602C211.573,63.602 210.949,63.056 210.949,61.808L210.949,55.074L213.939,55.074L213.939,52.89Z" style="fill:rgb(35,31,32);fill-rule:nonzero;"/>
            <path d="M223.585,62.25C223.091,62.926 222.207,63.498 221.063,63.498C219.581,63.498 218.853,62.588 218.853,60.846L218.853,52.37L215.941,52.37L215.941,60.82C215.941,63.888 217.449,65.812 220.127,65.812C221.609,65.812 222.831,65.318 223.767,64.33L223.897,65.578L226.471,65.578L226.471,52.37L223.585,52.37L223.585,62.25Z" style="fill:rgb(35,31,32);fill-rule:nonzero;"/>
            <path d="M235.934,52.89L232.944,52.89L232.944,49.874L230.916,49.874L230.162,52.812L228.42,52.942L228.42,54.788L230.006,55.204L230.006,61.678C230.006,64.33 231.02,65.786 233.516,65.786C234.478,65.786 235.258,65.552 235.934,65.188L235.674,63.394C235.31,63.524 234.946,63.602 234.556,63.602C233.568,63.602 232.944,63.056 232.944,61.808L232.944,55.074L235.934,55.074L235.934,52.89Z" style="fill:rgb(35,31,32);fill-rule:nonzero;"/>
            <path d="M247.738,59.338L247.738,57.05C247.738,54.32 245.996,52.136 242.798,52.136C239.47,52.136 237.728,54.268 237.728,56.92L237.728,60.976C237.728,63.758 239.548,65.812 242.85,65.812C245.476,65.812 247.01,64.694 247.764,62.432L245.684,61.652C245.138,63.056 244.384,63.602 243.136,63.602C241.498,63.602 240.64,62.666 240.64,60.872L240.64,59.338L247.738,59.338ZM240.64,56.764C240.64,55.204 241.342,54.294 242.902,54.294C244.332,54.294 245.164,55.152 245.164,56.712L245.164,57.622L240.64,57.622L240.64,56.764Z" style="fill:rgb(35,31,32);fill-rule:nonzero;"/>
            <path d="M172.081,79.945C172.081,77.215 170.313,75.135 166.777,75.135C163.293,75.135 161.499,77.267 161.499,79.945L161.499,84.053C161.499,86.731 163.293,88.811 166.777,88.811C170.261,88.811 172.081,86.731 172.081,84.053L172.081,79.945ZM164.411,80.049C164.411,78.333 165.139,77.345 166.777,77.345C168.441,77.345 169.169,78.333 169.169,80.049L169.169,83.923C169.169,85.665 168.441,86.627 166.777,86.627C165.191,86.627 164.411,85.665 164.411,83.923L164.411,80.049Z" style="fill:rgb(35,31,32);fill-rule:nonzero;"/>
            <path d="M180.947,75.993L177.879,75.993L177.879,75.733C177.879,74.147 178.529,73.523 180.817,73.419L180.687,71.469C176.553,71.573 175.097,73.107 175.097,75.733L175.097,75.993L173.563,75.993L173.563,78.099L175.097,78.099L175.097,88.577L178.009,88.577L178.009,78.099L180.947,78.099L180.947,75.993Z" style="fill:rgb(35,31,32);fill-rule:nonzero;"/>
            <path d="M198.263,80.153C198.263,78.281 199.147,77.527 200.317,77.527C201.669,77.527 202.293,78.463 202.293,80.153L202.293,88.577L205.179,88.577L205.179,80.153C205.179,76.721 203.723,75.135 201.175,75.135C199.615,75.135 198.341,75.863 197.535,77.059C196.911,75.759 195.793,75.135 194.389,75.135C193.063,75.135 191.893,75.681 191.035,76.773L191.035,75.369L188.435,75.369L188.435,88.577L191.347,88.577L191.347,79.061C191.763,78.151 192.569,77.527 193.505,77.527C194.623,77.527 195.377,78.229 195.377,80.153L195.377,88.577L198.263,88.577L198.263,80.153Z" style="fill:rgb(35,31,32);fill-rule:nonzero;"/>
            <path d="M209.546,79.165C210.17,77.969 211.054,77.345 212.094,77.345C213.368,77.345 214.018,78.021 214.018,79.633L214.018,80.907L213.108,80.907C208.714,80.907 207.336,82.857 207.336,85.171C207.336,87.329 208.714,88.811 211.054,88.811C212.38,88.811 213.524,88.421 214.46,87.537C214.876,88.239 215.604,88.733 216.826,88.733C217.294,88.733 217.788,88.629 218.178,88.525L218.178,86.861L217.84,86.861C217.216,86.861 216.904,86.497 216.904,85.873L216.904,79.633C216.904,77.085 215.656,75.109 212.51,75.109C210.196,75.109 208.714,76.357 207.778,78.177L209.546,79.165ZM211.782,86.809C210.742,86.809 210.118,86.315 210.118,84.963C210.118,83.663 210.82,82.831 213.108,82.831L214.018,82.831L214.018,85.795C213.446,86.445 212.77,86.809 211.782,86.809Z" style="fill:rgb(35,31,32);fill-rule:nonzero;"/>
            <path d="M226.368,75.889L223.378,75.889L223.378,72.873L221.35,72.873L220.596,75.811L218.854,75.941L218.854,77.787L220.44,78.203L220.44,84.677C220.44,87.329 221.454,88.785 223.95,88.785C224.912,88.785 225.692,88.551 226.368,88.187L226.108,86.393C225.744,86.523 225.38,86.601 224.99,86.601C224.002,86.601 223.378,86.055 223.378,84.807L223.378,78.073L226.368,78.073L226.368,75.889Z" style="fill:rgb(35,31,32);fill-rule:nonzero;"/>
            <path d="M238.171,82.337L238.171,80.049C238.171,77.319 236.429,75.135 233.231,75.135C229.903,75.135 228.161,77.267 228.161,79.919L228.161,83.975C228.161,86.757 229.981,88.811 233.283,88.811C235.909,88.811 237.443,87.693 238.197,85.431L236.117,84.651C235.571,86.055 234.817,86.601 233.569,86.601C231.931,86.601 231.073,85.665 231.073,83.871L231.073,82.337L238.171,82.337ZM231.073,79.763C231.073,78.203 231.775,77.293 233.335,77.293C234.765,77.293 235.597,78.151 235.597,79.711L235.597,80.621L231.073,80.621L231.073,79.763Z" style="fill:rgb(35,31,32);fill-rule:nonzero;"/>
            <path d="M247.999,75.499C247.609,75.291 247.037,75.161 246.517,75.161C245.139,75.161 244.047,75.837 243.267,77.553L243.111,75.369L240.589,75.369L240.589,88.577L243.501,88.577L243.501,81.219C243.735,79.087 244.671,77.813 246.413,77.813C246.881,77.813 247.323,77.917 247.687,78.151L247.999,75.499Z" style="fill:rgb(35,31,32);fill-rule:nonzero;"/>
            <path d="M250.131,75.889L250.131,88.577L253.043,88.577L253.043,75.889L250.131,75.889ZM250.313,71.573L250.313,74.121L252.861,74.121L252.861,71.573L250.313,71.573Z" style="fill:rgb(35,31,32);fill-rule:nonzero;"/>
            <path d="M257.88,79.165C258.504,77.969 259.388,77.345 260.428,77.345C261.702,77.345 262.352,78.021 262.352,79.633L262.352,80.907L261.442,80.907C257.048,80.907 255.67,82.857 255.67,85.171C255.67,87.329 257.048,88.811 259.388,88.811C260.714,88.811 261.858,88.421 262.794,87.537C263.21,88.239 263.938,88.733 265.16,88.733C265.628,88.733 266.122,88.629 266.512,88.525L266.512,86.861L266.174,86.861C265.55,86.861 265.238,86.497 265.238,85.873L265.238,79.633C265.238,77.085 263.99,75.109 260.844,75.109C258.53,75.109 257.048,76.357 256.112,78.177L257.88,79.165ZM260.116,86.809C259.076,86.809 258.452,86.315 258.452,84.963C258.452,83.663 259.154,82.831 261.442,82.831L262.352,82.831L262.352,85.795C261.78,86.445 261.104,86.809 260.116,86.809Z" style="fill:rgb(35,31,32);fill-rule:nonzero;"/>
            <rect x="268.669" y="71.573" width="2.912" height="17.004" style="fill:rgb(35,31,32);fill-rule:nonzero;"/>
            <path d="M283.385,77.995C282.553,76.097 281.097,75.135 278.991,75.135C276.053,75.135 274.467,76.825 274.467,78.931C274.467,83.325 280.733,82.441 280.733,85.067C280.733,86.159 280.135,86.757 278.887,86.757C277.847,86.757 276.703,86.237 276.079,84.911L274.285,85.899C275.195,87.927 276.781,88.811 278.965,88.811C281.617,88.811 283.489,87.121 283.489,84.807C283.489,80.361 277.223,81.167 277.223,78.697C277.223,77.813 277.821,77.215 279.095,77.215C280.161,77.215 281.097,77.605 281.617,78.827L283.385,77.995Z" style="fill:rgb(35,31,32);fill-rule:nonzero;"/>
            <path d="M170.443,100.995C169.611,99.097 168.155,98.135 166.049,98.135C163.111,98.135 161.525,99.825 161.525,101.931C161.525,106.325 167.791,105.441 167.791,108.067C167.791,109.159 167.193,109.757 165.945,109.757C164.905,109.757 163.761,109.237 163.137,107.911L161.343,108.899C162.253,110.927 163.839,111.811 166.023,111.811C168.675,111.811 170.547,110.121 170.547,107.807C170.547,103.361 164.281,104.167 164.281,101.697C164.281,100.813 164.879,100.215 166.153,100.215C167.219,100.215 168.155,100.605 168.675,101.827L170.443,100.995Z" style="fill:rgb(35,31,32);fill-rule:nonzero;"/>
            <path d="M181.935,101.307C181.181,99.279 179.491,98.135 177.307,98.135C174.031,98.135 172.315,100.267 172.315,102.945L172.315,107.027C172.315,109.627 174.005,111.811 177.307,111.811C179.725,111.811 181.259,110.589 182.013,108.561L179.933,107.781C179.465,109.055 178.737,109.575 177.593,109.575C176.085,109.575 175.227,108.717 175.227,106.897L175.227,103.049C175.227,101.229 176.085,100.423 177.593,100.423C178.633,100.423 179.465,100.917 179.907,102.113L181.935,101.307Z" style="fill:rgb(35,31,32);fill-rule:nonzero;"/>
            <path d="M184.197,98.889L184.197,111.577L187.109,111.577L187.109,98.889L184.197,98.889ZM184.379,94.573L184.379,97.121L186.927,97.121L186.927,94.573L184.379,94.573Z" style="fill:rgb(35,31,32);fill-rule:nonzero;"/>
            <path d="M199.901,105.337L199.901,103.049C199.901,100.319 198.159,98.135 194.961,98.135C191.633,98.135 189.891,100.267 189.891,102.919L189.891,106.975C189.891,109.757 191.711,111.811 195.013,111.811C197.639,111.811 199.173,110.693 199.927,108.431L197.847,107.651C197.301,109.055 196.547,109.601 195.299,109.601C193.661,109.601 192.803,108.665 192.803,106.871L192.803,105.337L199.901,105.337ZM192.803,102.763C192.803,101.203 193.505,100.293 195.065,100.293C196.495,100.293 197.327,101.151 197.327,102.711L197.327,103.621L192.803,103.621L192.803,102.763Z" style="fill:rgb(35,31,32);fill-rule:nonzero;"/>
            <path d="M205.231,101.802C205.725,101.074 206.609,100.528 207.753,100.528C209.209,100.528 209.963,101.412 209.963,103.206L209.963,111.578L212.849,111.578L212.849,103.128C212.849,100.034 211.367,98.136 208.637,98.136C207.155,98.136 205.933,98.63 205.023,99.644L204.919,98.37L202.319,98.37L202.319,111.578L205.231,111.578L205.231,101.802Z" style="fill:rgb(35,31,32);fill-rule:nonzero;"/>
            <path d="M224.782,101.308C224.028,99.28 222.338,98.136 220.154,98.136C216.878,98.136 215.162,100.268 215.162,102.946L215.162,107.028C215.162,109.628 216.852,111.812 220.154,111.812C222.572,111.812 224.106,110.59 224.86,108.562L222.78,107.782C222.312,109.056 221.584,109.576 220.44,109.576C218.932,109.576 218.074,108.718 218.074,106.898L218.074,103.05C218.074,101.23 218.932,100.424 220.44,100.424C221.48,100.424 222.312,100.918 222.754,102.114L224.782,101.308Z" style="fill:rgb(35,31,32);fill-rule:nonzero;"/>
            <path d="M236.378,105.338L236.378,103.05C236.378,100.32 234.636,98.136 231.438,98.136C228.11,98.136 226.368,100.268 226.368,102.92L226.368,106.976C226.368,109.758 228.188,111.812 231.49,111.812C234.116,111.812 235.65,110.694 236.404,108.432L234.324,107.652C233.778,109.056 233.024,109.602 231.776,109.602C230.138,109.602 229.28,108.666 229.28,106.872L229.28,105.338L236.378,105.338ZM229.28,102.764C229.28,101.204 229.982,100.294 231.542,100.294C232.972,100.294 233.804,101.152 233.804,102.712L233.804,103.622L229.28,103.622L229.28,102.764Z" style="fill:rgb(35,31,32);fill-rule:nonzero;"/>
            <path d="M7.803,8.677L134.23,8.677L134.23,155.198L7.803,155.198L7.803,8.677ZM0,0.873L0,163L142.034,163L142.034,0.873L0,0.873Z" style="fill:rgb(35,31,32);fill-rule:nonzero;"/>
            <path d="M26.871,124.251L283.465,124.251L283.465,120.354L26.871,120.354" style="fill:rgb(35,31,32);fill-rule:nonzero;"/>
            <path d="M18.941,133.631C18.689,135.731 18.29,136.13 16.715,136.13L15.56,136.13L15.56,138.188L18.311,138.188L18.311,147.449L21.335,147.449L21.335,133.631L18.941,133.631Z" style="fill:rgb(35,31,32);fill-rule:nonzero;"/>
            <path d="M25.304,143.607L23.435,144.678C24.086,146.61 25.514,147.639 27.677,147.639C30.554,147.639 32.318,145.833 32.318,142.956L32.318,137.874C32.318,135.459 30.806,133.506 27.866,133.506C24.905,133.506 23.267,135.186 23.267,138.105C23.267,140.94 24.8,142.242 27.194,142.242C28.139,142.242 28.895,142.011 29.483,141.549L29.483,143.145C29.483,144.531 28.853,145.224 27.509,145.224C26.417,145.224 25.766,144.783 25.304,143.607ZM27.74,139.953C26.69,139.953 26.144,139.512 26.144,138C26.144,136.593 26.669,135.984 27.824,135.984C28.958,135.984 29.483,136.509 29.483,137.727L29.483,138.882C29.441,139.68 28.517,139.953 27.74,139.953Z" style="fill:rgb(35,31,32);fill-rule:nonzero;"/>
            <path d="M38.366,133.527C35.846,133.527 34.313,135.186 33.746,137.307L35.993,138.063C36.308,136.719 37.106,135.984 38.114,135.984C39.248,135.984 39.731,136.53 39.731,137.454C39.731,140.142 33.998,141.759 33.83,146.19L33.872,147.45L42.65,147.45L42.65,145.077L37.064,145.077C37.799,142.263 42.629,141.99 42.629,137.307C42.629,135.312 41.369,133.527 38.366,133.527Z" style="fill:rgb(35,31,32);fill-rule:nonzero;"/>
            <path d="M48.592,133.527C46.072,133.527 44.539,135.186 43.972,137.307L46.219,138.063C46.534,136.719 47.332,135.984 48.34,135.984C49.474,135.984 49.957,136.53 49.957,137.454C49.957,140.142 44.224,141.759 44.056,146.19L44.098,147.45L52.876,147.45L52.876,145.077L47.29,145.077C48.025,142.263 52.855,141.99 52.855,137.307C52.855,135.312 51.595,133.527 48.592,133.527Z" style="fill:rgb(35,31,32);fill-rule:nonzero;"/>
        </g>
    </g>
</svg>
